<svg width="75" height="75" viewBox="0 0 75 75" fill="none" xmlns="http://www.w3.org/2000/svg">
<path d="M10.1292 18.9803C12.0887 17.6107 15.0426 17.8734 16.802 19.3263L14.7841 16.3933C13.1602 14.0773 13.7418 11.5716 16.0599 9.94562C18.378 8.32588 24.9465 12.6806 24.9465 12.6806C23.3081 10.3417 23.6145 7.37739 25.9534 5.73681C28.2923 4.10248 31.5193 4.66741 33.1578 7.0105L54.8793 37.6959L52.111 64.5351L29.0074 56.1092L8.85551 26.2305C7.20242 23.877 7.7736 20.6313 10.1292 18.9803Z" fill="#EF9645"/>
<path d="M5.61923 36.0511C5.61923 36.0511 3.25946 32.6115 6.70114 30.2538C10.1386 27.8961 12.4963 31.3336 12.4963 31.3336L23.4426 47.2975C23.8199 46.668 24.2326 46.0468 24.6933 45.4339L9.50076 23.2808C9.50076 23.2808 7.14307 19.8433 10.5827 17.4856C14.0202 15.1279 16.3779 18.5654 16.3779 18.5654L30.6678 39.4052C31.1994 38.9716 31.7435 38.5359 32.3042 38.1086L15.7379 13.946C15.7379 13.946 13.3802 10.5085 16.8198 8.15077C20.2573 5.79308 22.615 9.23059 22.615 9.23059L39.1813 33.389C39.79 33.0159 40.3925 32.6928 40.997 32.3509L25.5126 9.7705C25.5126 9.7705 23.1549 6.333 26.5924 3.97531C30.0299 1.61762 32.3876 5.05513 32.3876 5.05513L48.7601 28.9322L51.2491 32.5635C40.9345 39.6387 39.9526 52.9489 45.8458 61.5437C47.0236 63.2635 48.7434 62.0857 48.7434 62.0857C41.6703 51.769 43.83 40.1765 54.1467 33.1035L51.1053 17.8817C51.1053 17.8817 49.9691 13.8709 53.9778 12.7327C57.9886 11.5966 59.1268 15.6074 59.1268 15.6074L62.6394 26.0387C64.0319 30.1746 65.514 34.2959 67.4756 38.1941C73.0144 49.2008 69.7062 62.8799 59.2623 70.0447C47.8699 77.8557 32.2959 74.9519 24.4828 63.5616L5.61923 36.0511Z" fill="#FFDC5D"/>
<path d="M25.0244 66.7072C16.686 66.7072 8.26003 58.2812 8.26003 49.9428C8.26003 48.79 7.41576 47.8582 6.26298 47.8582C5.11019 47.8582 4.09082 48.79 4.09082 49.9428C4.09082 62.4504 12.5168 70.8764 25.0244 70.8764C26.1772 70.8764 27.109 69.857 27.109 68.7042C27.109 67.5515 26.1772 66.7072 25.0244 66.7072Z" fill="#5DADEC"/>
<path d="M14.5922 70.789C8.33841 70.789 4.16921 66.6198 4.16921 60.3659C4.16921 59.2132 3.23739 58.2813 2.0846 58.2813C0.931818 58.2813 0 59.2132 0 60.3659C0 68.7044 6.25381 74.9582 14.5922 74.9582C15.745 74.9582 16.6768 74.0264 16.6768 72.8736C16.6768 71.7208 15.745 70.789 14.5922 70.789ZM50.0305 4.08167C48.8798 4.08167 47.9459 5.01557 47.9459 6.16627C47.9459 7.31697 48.8798 8.25087 50.0305 8.25087C58.3689 8.25087 66.7073 15.7325 66.7073 24.9277C66.7073 26.0784 67.6412 27.0123 68.7919 27.0123C69.9426 27.0123 70.8765 26.0784 70.8765 24.9277C70.8765 13.4332 62.5381 4.08167 50.0305 4.08167Z" fill="#5DADEC"/>
<path d="M60.4557 0C59.305 0 58.3711 0.846349 58.3711 1.99705C58.3711 3.14775 59.305 4.1692 60.4557 4.1692C66.7095 4.1692 70.7912 8.80745 70.7912 14.5047C70.7912 15.6554 71.8105 16.5893 72.9633 16.5893C74.1161 16.5893 74.9604 15.6554 74.9604 14.5047C74.9604 6.50604 68.7941 0 60.4557 0Z" fill="#5DADEC"/>
</svg>
